<svg width="190" height="60" viewBox="0 0 190 60" fill="none" xmlns="http://www.w3.org/2000/svg">
<path fill-rule="evenodd" clip-rule="evenodd" d="M164.363 37C164.363 33.134 167.497 30 171.363 30L183 30C186.866 30 190 26.866 190 23V7.00001C190 3.13402 186.866 1.35421e-05 183 1.32511e-05L7 0C3.13401 -2.91071e-07 2.27204e-06 3.134 1.82989e-06 7L0 23C-4.42147e-07 26.866 3.134 30 6.99999 30L17.6456 30C21.5116 30 24.6456 33.134 24.6456 37L24.6456 52.5612C24.6456 56.5944 28.0449 59.7932 32.0707 59.5483L157.788 51.9C161.482 51.6753 164.363 48.6138 164.363 44.9129V37Z" fill="#FFA241"/>
<mask id="mask0_4094_2465" style="mask-type:alpha" maskUnits="userSpaceOnUse" x="0" y="0" width="190" height="60">
<path fill-rule="evenodd" clip-rule="evenodd" d="M164.363 37C164.363 33.134 167.497 30 171.363 30L183 30C186.866 30 190 26.866 190 23V7.00001C190 3.13402 186.866 1.35421e-05 183 1.32511e-05L7 0C3.13401 -2.91071e-07 2.27204e-06 3.134 1.82989e-06 7L0 23C-4.42147e-07 26.866 3.134 30 6.99999 30L17.6456 30C21.5116 30 24.6456 33.134 24.6456 37L24.6456 52.5612C24.6456 56.5944 28.0449 59.7932 32.0707 59.5483L157.788 51.9C161.482 51.6753 164.363 48.6138 164.363 44.9129V37Z" fill="#FDB264"/>
</mask>
<g mask="url(#mask0_4094_2465)">
<rect x="-24" y="16" width="225" height="8" fill="#FF973B"/>
<rect y="36" width="179" height="16" fill="#FF973B"/>
</g>
</svg>
