<svg width="277" height="70" viewBox="0 0 277 70" fill="none" xmlns="http://www.w3.org/2000/svg">
<rect x="132.758" y="16" width="9.48649" height="47.4324" fill="#AC5541"/>
<rect x="132.73" y="16" width="9.48649" height="47.4324" transform="rotate(45 132.73 16)" fill="#AC5541"/>
<rect width="9.48649" height="47.4324" transform="matrix(-0.707107 0.707107 0.707107 0.707107 142.383 16)" fill="#AC5541"/>
<path fill-rule="evenodd" clip-rule="evenodd" d="M185.08 37.8995C187.668 31.5906 189 24.8287 189 18H172C172 22.5963 171.108 27.1475 169.374 31.3939C167.64 35.6403 165.099 39.4987 161.895 42.7487C158.692 45.9988 154.888 48.5769 150.703 50.3358C146.517 52.0947 142.031 53 137.5 53C132.969 53 128.483 52.0947 124.297 50.3358C120.112 48.5769 116.308 45.9988 113.105 42.7487C109.901 39.4987 107.36 35.6403 105.626 31.3939C103.892 27.1475 103 22.5963 103 18H86C86 24.8287 87.3321 31.5906 89.9202 37.8995C92.5083 44.2085 96.3018 49.9409 101.084 54.7696C105.866 59.5982 111.544 63.4285 117.792 66.0417C124.04 68.655 130.737 70 137.5 70C144.263 70 150.96 68.655 157.208 66.0417C163.456 63.4285 169.134 59.5982 173.916 54.7696C178.698 49.9409 182.492 44.2085 185.08 37.8995Z" fill="#C3664E"/>
<path d="M0 5C0 2.23858 2.23858 0 5 0H272C274.761 0 277 2.23858 277 5V20C277 22.7614 274.761 25 272 25H5C2.23858 25 0 22.7614 0 20V5Z" fill="#D1775F"/>
<circle cx="12.5" cy="12.5" r="3.5" fill="#C3664E"/>
<circle cx="264.5" cy="12.5" r="3.5" fill="#C3664E"/>
</svg>
