<svg width="196" height="102" viewBox="0 0 196 102" fill="none" xmlns="http://www.w3.org/2000/svg">
<path d="M4 10C4 7.23857 6.23858 5 9 5H187C189.761 5 192 7.23858 192 10V92C192 94.7614 189.761 97 187 97H9C6.23858 97 4 94.7614 4 92V10Z" fill="#C3664E"/>
<path d="M192 79C194.209 79 196 80.7909 196 83L196 93C196 95.2091 194.209 97 192 97L4 97C1.79086 97 -7.08524e-07 95.2091 -6.1196e-07 93L-1.74846e-07 83C-7.82811e-08 80.7909 1.79086 79 4 79L192 79Z" fill="#D1775F"/>
<rect x="174" y="23" width="56" height="152" transform="rotate(90 174 23)" fill="#AC5541"/>
<path d="M192 5C194.209 5 196 6.79086 196 9L196 19C196 21.2091 194.209 23 192 23L4 23C1.79086 23 -7.08524e-07 21.2091 -6.1196e-07 19L-1.74846e-07 8.99999C-7.82811e-08 6.79085 1.79086 4.99999 4 4.99999L192 5Z" fill="#D1775F"/>
<path d="M22 41H174" stroke="#9E4A36" stroke-width="5"/>
<path d="M22 61H174" stroke="#9E4A36" stroke-width="5"/>
</svg>
