<svg width="254" height="15" viewBox="0 0 254 15" fill="none" xmlns="http://www.w3.org/2000/svg">
<rect width="254" height="15" fill="#FFA461"/>
<path d="M252 0L247.853 15L242 15L246.147 -2.55841e-07L252 0Z" fill="#F69752"/>
<path d="M167 0L162.853 15L157 15L161.147 -2.55841e-07L167 0Z" fill="#F69752"/>
<path d="M82 0L77.853 15L72 15L76.147 -2.55841e-07L82 0Z" fill="#F69752"/>
<path d="M224 0L219.853 15L214 15L218.147 -2.55841e-07L224 0Z" fill="#F69752"/>
<path d="M139 0L134.853 15L129 15L133.147 -2.55841e-07L139 0Z" fill="#F69752"/>
<path d="M54 0L49.853 15L44 15L48.147 -2.55841e-07L54 0Z" fill="#F69752"/>
<path d="M195 0L190.853 15L185 15L189.147 -2.55841e-07L195 0Z" fill="#F69752"/>
<path d="M110 0L105.853 15L100 15L104.147 -2.55841e-07L110 0Z" fill="#F69752"/>
<path d="M25 0L20.853 15L15 15L19.147 -2.55841e-07L25 0Z" fill="#F69752"/>
</svg>
