<svg width="952" height="1696" viewBox="0 0 952 1696" fill="none" xmlns="http://www.w3.org/2000/svg">
<g clip-path="url(#clip0_4094_2255)">
<rect width="952" height="1696" fill="#AAFAFF"/>
<path fill-rule="evenodd" clip-rule="evenodd" d="M428.824 286.897C420.506 251.972 389.101 226 351.631 226C314.16 226 282.755 251.972 274.437 286.897H263.053C230.44 286.897 204.002 313.335 204.002 345.948C204.002 378.562 230.44 405 263.053 405H438.363C470.976 405 497.414 378.562 497.414 345.948C497.414 313.335 470.976 286.897 438.363 286.897H428.824Z" fill="#C9FCFF"/>
<path fill-rule="evenodd" clip-rule="evenodd" d="M713.688 676.835C710.296 662.592 697.488 652 682.207 652C666.925 652 654.118 662.592 650.726 676.835H646.083C632.782 676.835 622 687.617 622 700.918C622 714.218 632.782 725 646.083 725H717.578C730.878 725 741.66 714.218 741.66 700.918C741.66 687.617 730.878 676.835 717.578 676.835H713.688Z" fill="#C9FCFF"/>
<path fill-rule="evenodd" clip-rule="evenodd" d="M522.59 1350.9C530.908 1315.97 562.313 1290 599.783 1290C637.254 1290 668.659 1315.97 676.977 1350.9H688.361C720.974 1350.9 747.412 1377.34 747.412 1409.95C747.412 1442.56 720.974 1469 688.361 1469H513.052C480.438 1469 454 1442.56 454 1409.95C454 1377.34 480.438 1350.9 513.052 1350.9H522.59Z" fill="#C9FCFF"/>
<path fill-rule="evenodd" clip-rule="evenodd" d="M269.972 941.835C273.365 927.592 286.172 917 301.453 917C316.735 917 329.542 927.592 332.935 941.835H337.577C350.878 941.835 361.66 952.617 361.66 965.918C361.66 979.218 350.878 990 337.577 990H266.082C252.782 990 242 979.218 242 965.918C242 952.617 252.782 941.835 266.082 941.835H269.972Z" fill="#C9FCFF"/>
<rect x="885.586" y="619.556" width="14" height="33" rx="7" transform="rotate(-48.9363 885.586 619.556)" fill="#70F6FF"/>
<rect x="967.145" y="679" width="14" height="33" rx="7" transform="rotate(36.3474 967.145 679)" fill="#70F6FF"/>
<rect x="824" y="739.1" width="14" height="33" rx="7" transform="rotate(-53.7692 824 739.1)" fill="#70F6FF"/>
<rect x="837.586" y="635.598" width="14" height="33" rx="7" transform="rotate(-28.116 837.586 635.598)" fill="#70F6FF"/>
<path fill-rule="evenodd" clip-rule="evenodd" d="M903 493H1001V670.5H1013.71C1016.96 670.5 1019.59 667.869 1019.59 664.624V637C1019.59 625.402 1028.99 616 1040.59 616C1052.18 616 1061.59 625.402 1061.59 637V680.717C1061.59 697.994 1047.58 712 1030.3 712H1001V894H903V789H880.895C859.414 789 842 771.586 842 750.105V662C842 650.402 851.402 641 863 641C874.598 641 884 650.402 884 662V731.427C884 737.462 888.892 742.354 894.928 742.354H903V493Z" fill="#70F6FF"/>
<rect x="920.586" y="758" width="19" height="105" rx="9.5" fill="#46F4FF"/>
<rect x="920.586" y="671" width="19" height="36" rx="9.5" fill="#46F4FF"/>
<rect x="885.586" y="1421.56" width="14" height="33" rx="7" transform="rotate(-48.9363 885.586 1421.56)" fill="#70F6FF"/>
<rect x="967.145" y="1481" width="14" height="33" rx="7" transform="rotate(36.3474 967.145 1481)" fill="#70F6FF"/>
<rect x="824" y="1541.1" width="14" height="33" rx="7" transform="rotate(-53.7692 824 1541.1)" fill="#70F6FF"/>
<rect x="837.586" y="1437.6" width="14" height="33" rx="7" transform="rotate(-28.116 837.586 1437.6)" fill="#70F6FF"/>
<path fill-rule="evenodd" clip-rule="evenodd" d="M903 1295H1001V1472.5H1013.71C1016.96 1472.5 1019.59 1469.87 1019.59 1466.62V1439C1019.59 1427.4 1028.99 1418 1040.59 1418C1052.18 1418 1061.59 1427.4 1061.59 1439V1482.72C1061.59 1499.99 1047.58 1514 1030.3 1514H1001V1696H903V1591H880.895C859.414 1591 842 1573.59 842 1552.1V1464C842 1452.4 851.402 1443 863 1443C874.598 1443 884 1452.4 884 1464V1533.43C884 1539.46 888.892 1544.35 894.928 1544.35H903V1295Z" fill="#70F6FF"/>
<rect x="920.586" y="1560" width="19" height="105" rx="9.5" fill="#46F4FF"/>
<rect x="920.586" y="1473" width="19" height="36" rx="9.5" fill="#46F4FF"/>
<path fill-rule="evenodd" clip-rule="evenodd" d="M903 -309H1001V-131.5H1013.71C1016.96 -131.5 1019.59 -134.131 1019.59 -137.376V-165C1019.59 -176.598 1028.99 -186 1040.59 -186C1052.18 -186 1061.59 -176.598 1061.59 -165V-121.283C1061.59 -104.006 1047.58 -90 1030.3 -90H1001V92H903V-13H880.895C859.414 -13 842 -30.414 842 -51.8953V-140C842 -151.598 851.402 -161 863 -161C874.598 -161 884 -151.598 884 -140V-70.5733C884 -64.5381 888.892 -59.6456 894.928 -59.6456H903V-309Z" fill="#70F6FF"/>
<rect x="920.586" y="-44" width="19" height="105" rx="9.5" fill="#70F6FF"/>
<rect width="14" height="33" rx="7" transform="matrix(-0.707107 0.707107 0.707107 0.707107 896.898 1139)" fill="#70F6FF"/>
<rect width="14" height="33" rx="7" transform="matrix(-0.173531 0.984828 0.984828 0.173531 888.582 1253.86)" fill="#70F6FF"/>
<rect width="14" height="33" rx="7" transform="matrix(-0.707107 0.707107 0.707107 0.707107 896.898 938)" fill="#70F6FF"/>
<rect width="14" height="33" rx="7" transform="matrix(-0.707107 0.707107 0.707107 0.707107 835.898 1042)" fill="#70F6FF"/>
<rect width="14" height="33" rx="7" transform="matrix(-0.805439 0.592679 0.592679 0.805439 936.676 1080)" fill="#70F6FF"/>
<path fill-rule="evenodd" clip-rule="evenodd" d="M1001 894H903V1071.5H890.11C886.865 1071.5 884.234 1068.87 884.234 1065.62V1038C884.234 1026.4 874.832 1017 863.234 1017C851.636 1017 842.234 1026.4 842.234 1038V1081.72C842.234 1098.99 856.24 1113 873.517 1113H903V1295H1001V1190H1022.92C1044.41 1190 1061.82 1172.59 1061.82 1151.1V1063C1061.82 1051.4 1052.42 1042 1040.82 1042C1029.22 1042 1019.82 1051.4 1019.82 1063V1132.43C1019.82 1138.46 1014.93 1143.35 1008.89 1143.35H1001V894Z" fill="#70F6FF"/>
<rect width="19" height="105" rx="9.5" transform="matrix(-1 0 0 1 939 1159)" fill="#46F4FF"/>
<rect width="19" height="36" rx="9.5" transform="matrix(-1 0 0 1 939 1072)" fill="#46F4FF"/>
<rect width="14" height="33" rx="7" transform="matrix(-0.707107 0.707107 0.707107 0.707107 896.898 337)" fill="#70F6FF"/>
<rect width="14" height="33" rx="7" transform="matrix(-0.173531 0.984828 0.984828 0.173531 888.582 451.86)" fill="#70F6FF"/>
<rect width="14" height="33" rx="7" transform="matrix(-0.707107 0.707107 0.707107 0.707107 896.898 136)" fill="#70F6FF"/>
<rect width="14" height="33" rx="7" transform="matrix(-0.707107 0.707107 0.707107 0.707107 835.898 240)" fill="#70F6FF"/>
<rect width="14" height="33" rx="7" transform="matrix(-0.805439 0.592679 0.592679 0.805439 936.676 278)" fill="#70F6FF"/>
<path fill-rule="evenodd" clip-rule="evenodd" d="M1001 92H903V269.5H890.11C886.865 269.5 884.234 266.869 884.234 263.624V236C884.234 224.402 874.832 215 863.234 215C851.636 215 842.234 224.402 842.234 236V279.717C842.234 296.994 856.24 311 873.517 311H903V493H1001V388H1022.92C1044.41 388 1061.82 370.586 1061.82 349.105V261C1061.82 249.402 1052.42 240 1040.82 240C1029.22 240 1019.82 249.402 1019.82 261V330.427C1019.82 336.462 1014.93 341.354 1008.89 341.354H1001V92Z" fill="#70F6FF"/>
<rect width="19" height="105" rx="9.5" transform="matrix(-1 0 0 1 939 357)" fill="#46F4FF"/>
<rect width="19" height="36" rx="9.5" transform="matrix(-1 0 0 1 939 270)" fill="#46F4FF"/>
<rect x="53.9219" y="738" width="14" height="33" rx="7" transform="rotate(45 53.9219 738)" fill="#70F6FF"/>
<rect x="62.2383" y="852.86" width="14" height="33" rx="7" transform="rotate(80.0068 62.2383 852.86)" fill="#70F6FF"/>
<rect x="53.9219" y="537" width="14" height="33" rx="7" transform="rotate(45 53.9219 537)" fill="#70F6FF"/>
<rect x="114.922" y="641" width="14" height="33" rx="7" transform="rotate(45 114.922 641)" fill="#70F6FF"/>
<rect x="14.1445" y="679" width="14" height="33" rx="7" transform="rotate(36.3474 14.1445 679)" fill="#70F6FF"/>
<path fill-rule="evenodd" clip-rule="evenodd" d="M-50 493H48V670.5H60.7099C63.9552 670.5 66.5859 667.869 66.5859 664.624V637C66.5859 625.402 75.988 616 87.5859 616C99.1839 616 108.586 625.402 108.586 637V680.717C108.586 697.994 94.58 712 77.3028 712H48V894H-50V789H-72.1047C-93.586 789 -111 771.586 -111 750.105V662C-111 650.402 -101.598 641 -90 641C-78.402 641 -69 650.402 -69 662V731.427C-69 737.462 -64.1075 742.354 -58.0723 742.354H-50V493Z" fill="#70F6FF"/>
<rect x="29" y="506" width="19" height="146" rx="9.5" fill="#8AF8FF"/>
<rect x="53.9219" y="1540" width="14" height="33" rx="7" transform="rotate(45 53.9219 1540)" fill="#70F6FF"/>
<rect x="62.2383" y="1654.86" width="14" height="33" rx="7" transform="rotate(80.0068 62.2383 1654.86)" fill="#70F6FF"/>
<rect x="53.9219" y="1339" width="14" height="33" rx="7" transform="rotate(45 53.9219 1339)" fill="#70F6FF"/>
<rect x="114.922" y="1443" width="14" height="33" rx="7" transform="rotate(45 114.922 1443)" fill="#70F6FF"/>
<rect x="14.1445" y="1481" width="14" height="33" rx="7" transform="rotate(36.3474 14.1445 1481)" fill="#70F6FF"/>
<path fill-rule="evenodd" clip-rule="evenodd" d="M-50 1295H48V1472.5H60.7099C63.9552 1472.5 66.5859 1469.87 66.5859 1466.62V1439C66.5859 1427.4 75.988 1418 87.5859 1418C99.1839 1418 108.586 1427.4 108.586 1439V1482.72C108.586 1499.99 94.58 1514 77.3028 1514H48V1696H-50V1591H-72.1047C-93.586 1591 -111 1573.59 -111 1552.1V1464C-111 1452.4 -101.598 1443 -90 1443C-78.402 1443 -69 1452.4 -69 1464V1533.43C-69 1539.46 -64.1075 1544.35 -58.0723 1544.35H-50V1295Z" fill="#70F6FF"/>
<rect x="29" y="1308" width="19" height="146" rx="9.5" fill="#8AF8FF"/>
<rect x="62.2383" y="50.8604" width="14" height="33" rx="7" transform="rotate(80.0068 62.2383 50.8604)" fill="#70F6FF"/>
<path fill-rule="evenodd" clip-rule="evenodd" d="M-50 -309H48V-131.5H60.7099C63.9552 -131.5 66.5859 -134.131 66.5859 -137.376V-165C66.5859 -176.598 75.988 -186 87.5859 -186C99.1839 -186 108.586 -176.598 108.586 -165V-121.283C108.586 -104.006 94.58 -90 77.3028 -90H48V92H-50V-13H-72.1047C-93.586 -13 -111 -30.414 -111 -51.8953V-140C-111 -151.598 -101.598 -161 -90 -161C-78.402 -161 -69 -151.598 -69 -140V-70.5733C-69 -64.5381 -64.1075 -59.6456 -58.0723 -59.6456H-50V-309Z" fill="#70F6FF"/>
<rect width="14" height="33" rx="7" transform="matrix(-0.656897 -0.75398 -0.75398 0.656897 65.2344 1020.56)" fill="#70F6FF"/>
<rect width="14" height="33" rx="7" transform="matrix(-0.805439 0.592679 0.592679 0.805439 -16.3242 1080)" fill="#70F6FF"/>
<rect width="14" height="33" rx="7" transform="matrix(-0.59104 -0.806642 -0.806642 0.59104 126.82 1140.1)" fill="#70F6FF"/>
<rect width="14" height="33" rx="7" transform="matrix(-0.881996 -0.471258 -0.471258 0.881996 113.234 1036.6)" fill="#70F6FF"/>
<path fill-rule="evenodd" clip-rule="evenodd" d="M48 894H-50V1071.5H-62.8896C-66.1348 1071.5 -68.7656 1068.87 -68.7656 1065.62V1038C-68.7656 1026.4 -78.1676 1017 -89.7656 1017C-101.364 1017 -110.766 1026.4 -110.766 1038V1081.72C-110.766 1098.99 -96.7597 1113 -79.4825 1113H-50V1295H48V1190H69.925C91.4063 1190 108.82 1172.59 108.82 1151.1V1063C108.82 1051.4 99.4183 1042 87.8203 1042C76.2223 1042 66.8203 1051.4 66.8203 1063V1132.43C66.8203 1138.46 61.9278 1143.35 55.8926 1143.35H48V894Z" fill="#70F6FF"/>
<rect width="19" height="146" rx="9.5" transform="matrix(-1 0 0 1 48 907)" fill="#8AF8FF"/>
<rect width="14" height="33" rx="7" transform="matrix(-0.656897 -0.75398 -0.75398 0.656897 65.2344 218.556)" fill="#70F6FF"/>
<rect width="14" height="33" rx="7" transform="matrix(-0.805439 0.592679 0.592679 0.805439 -16.3242 278)" fill="#70F6FF"/>
<rect width="14" height="33" rx="7" transform="matrix(-0.59104 -0.806642 -0.806642 0.59104 126.82 338.1)" fill="#70F6FF"/>
<rect width="14" height="33" rx="7" transform="matrix(-0.881996 -0.471258 -0.471258 0.881996 113.234 234.598)" fill="#70F6FF"/>
<path fill-rule="evenodd" clip-rule="evenodd" d="M48 92H-50V269.5H-62.8896C-66.1348 269.5 -68.7656 266.869 -68.7656 263.624V236C-68.7656 224.402 -78.1676 215 -89.7656 215C-101.364 215 -110.766 224.402 -110.766 236V279.717C-110.766 296.994 -96.7597 311 -79.4825 311H-50V493H48V388H69.925C91.4063 388 108.82 370.586 108.82 349.105V261C108.82 249.402 99.4183 240 87.8203 240C76.2223 240 66.8203 249.402 66.8203 261V330.427C66.8203 336.462 61.9278 341.354 55.8926 341.354H48V92Z" fill="#70F6FF"/>
<rect width="19" height="146" rx="9.5" transform="matrix(-1 0 0 1 48 105)" fill="#8AF8FF"/>
</g>
<defs>
<clipPath id="clip0_4094_2255">
<rect width="952" height="1696" fill="white"/>
</clipPath>
</defs>
</svg>
