<svg width="112" height="77" viewBox="0 0 112 77" fill="none" xmlns="http://www.w3.org/2000/svg">
<path d="M2.58085 55.9653C0.809176 54.5321 2.42941 51.7258 4.55639 52.5435L13.4429 55.9601L9.98293 61.953L2.58085 55.9653Z" fill="#F2E1B3"/>
<path d="M5.58085 33.9653C3.80918 32.5321 5.42941 29.7258 7.55639 30.5435L16.4429 33.9601L12.9829 39.953L5.58085 33.9653Z" fill="#F2E1B3"/>
<path d="M25.8606 55.9653C27.6322 54.5321 26.012 51.7258 23.885 52.5435L14.9985 55.9601L18.4585 61.953L25.8606 55.9653Z" fill="#E7CD9C"/>
<path d="M21.8606 33.9653C23.6322 32.5321 22.012 29.7258 19.885 30.5435L10.9985 33.9601L14.4585 39.953L21.8606 33.9653Z" fill="#E7CD9C"/>
<path d="M11.0484 16.2338C11.6456 12.9494 16.3544 12.9494 16.9516 16.2338L28 77L1.34631e-05 77L11.0484 16.2338Z" fill="#F2E1B3"/>
<mask id="mask0_4094_2461" style="mask-type:alpha" maskUnits="userSpaceOnUse" x="0" y="13" width="28" height="64">
<path d="M11.0484 16.2338C11.6456 12.9494 16.3544 12.9494 16.9516 16.2338L28 77L1.34631e-05 77L11.0484 16.2338Z" fill="#EDE7E1"/>
</mask>
<g mask="url(#mask0_4094_2461)">
<path d="M14 0L28 77L14 77L14 0Z" fill="#E7CD9C"/>
</g>
<path d="M30.5808 55.9653C28.8092 54.5321 30.4294 51.7258 32.5564 52.5435L41.4429 55.9601L37.9829 61.953L30.5808 55.9653Z" fill="#F2E1B3"/>
<path d="M33.5808 33.9653C31.8092 32.5321 33.4294 29.7258 35.5564 30.5435L44.4429 33.9601L40.9829 39.953L33.5808 33.9653Z" fill="#F2E1B3"/>
<path d="M53.8606 55.9653C55.6322 54.5321 54.012 51.7258 51.885 52.5435L42.9985 55.9601L46.4585 61.953L53.8606 55.9653Z" fill="#E7CD9C"/>
<path d="M49.8606 33.9653C51.6322 32.5321 50.012 29.7258 47.885 30.5435L38.9985 33.9601L42.4585 39.953L49.8606 33.9653Z" fill="#E7CD9C"/>
<path d="M39.0484 16.2338C39.6456 12.9494 44.3544 12.9494 44.9516 16.2338L56 77L28 77L39.0484 16.2338Z" fill="#F2E1B3"/>
<mask id="mask1_4094_2461" style="mask-type:alpha" maskUnits="userSpaceOnUse" x="28" y="13" width="28" height="64">
<path d="M39.0484 16.2338C39.6456 12.9494 44.3544 12.9494 44.9516 16.2338L56 77L28 77L39.0484 16.2338Z" fill="#EDE7E1"/>
</mask>
<g mask="url(#mask1_4094_2461)">
<path d="M42 0L56 77L42 77L42 0Z" fill="#E7CD9C"/>
</g>
<path d="M58.5808 55.9653C56.8092 54.5321 58.4294 51.7258 60.5564 52.5435L69.4429 55.9601L65.9829 61.953L58.5808 55.9653Z" fill="#F2E1B3"/>
<path d="M61.5808 33.9653C59.8092 32.5321 61.4294 29.7258 63.5564 30.5435L72.4429 33.9601L68.9829 39.953L61.5808 33.9653Z" fill="#F2E1B3"/>
<path d="M81.8606 55.9653C83.6322 54.5321 82.012 51.7258 79.885 52.5435L70.9985 55.9601L74.4585 61.953L81.8606 55.9653Z" fill="#E7CD9C"/>
<path d="M77.8606 33.9653C79.6322 32.5321 78.012 29.7258 75.885 30.5435L66.9985 33.9601L70.4585 39.953L77.8606 33.9653Z" fill="#E7CD9C"/>
<path d="M67.0484 16.2338C67.6456 12.9494 72.3544 12.9494 72.9516 16.2338L84 77L56 77L67.0484 16.2338Z" fill="#F2E1B3"/>
<mask id="mask2_4094_2461" style="mask-type:alpha" maskUnits="userSpaceOnUse" x="56" y="13" width="28" height="64">
<path d="M67.0484 16.2338C67.6456 12.9494 72.3544 12.9494 72.9516 16.2338L84 77L56 77L67.0484 16.2338Z" fill="#EDE7E1"/>
</mask>
<g mask="url(#mask2_4094_2461)">
<path d="M70 0L84 77L70 77L70 0Z" fill="#E7CD9C"/>
</g>
<path d="M86.5808 55.9653C84.8092 54.5321 86.4294 51.7258 88.5564 52.5435L97.4429 55.9601L93.9829 61.953L86.5808 55.9653Z" fill="#F2E1B3"/>
<path d="M89.5808 33.9653C87.8092 32.5321 89.4294 29.7258 91.5564 30.5435L100.443 33.9601L96.9829 39.953L89.5808 33.9653Z" fill="#F2E1B3"/>
<path d="M109.861 55.9653C111.632 54.5321 110.012 51.7258 107.885 52.5435L98.9985 55.9601L102.458 61.953L109.861 55.9653Z" fill="#E7CD9C"/>
<path d="M105.861 33.9653C107.632 32.5321 106.012 29.7258 103.885 30.5435L94.9985 33.9601L98.4585 39.953L105.861 33.9653Z" fill="#E7CD9C"/>
<path d="M95.0484 16.2338C95.6456 12.9494 100.354 12.9494 100.952 16.2338L112 77L84 77L95.0484 16.2338Z" fill="#F2E1B3"/>
<mask id="mask3_4094_2461" style="mask-type:alpha" maskUnits="userSpaceOnUse" x="84" y="13" width="28" height="64">
<path d="M95.0484 16.2338C95.6456 12.9494 100.354 12.9494 100.952 16.2338L112 77L84 77L95.0484 16.2338Z" fill="#EDE7E1"/>
</mask>
<g mask="url(#mask3_4094_2461)">
<path d="M98 0L112 77L98 77L98 0Z" fill="#E7CD9C"/>
</g>
</svg>
