<svg width="28" height="77" viewBox="0 0 28 77" fill="none" xmlns="http://www.w3.org/2000/svg">
<path d="M2.58085 55.9653C0.809176 54.5321 2.42941 51.7258 4.55639 52.5435L13.4429 55.9601L9.98293 61.953L2.58085 55.9653Z" fill="#F2E1B3"/>
<path d="M5.58085 33.9653C3.80918 32.5321 5.42941 29.7258 7.55639 30.5435L16.4429 33.9601L12.9829 39.953L5.58085 33.9653Z" fill="#F2E1B3"/>
<path d="M25.8606 55.9653C27.6322 54.5321 26.012 51.7258 23.885 52.5435L14.9985 55.9601L18.4585 61.953L25.8606 55.9653Z" fill="#E7CD9C"/>
<path d="M21.8606 33.9653C23.6322 32.5321 22.012 29.7258 19.885 30.5435L10.9985 33.9601L14.4585 39.953L21.8606 33.9653Z" fill="#E7CD9C"/>
<path d="M11.0484 16.2338C11.6456 12.9494 16.3544 12.9494 16.9516 16.2338L28 77L1.34631e-05 77L11.0484 16.2338Z" fill="#F2E1B3"/>
<mask id="mask0_4094_2460" style="mask-type:alpha" maskUnits="userSpaceOnUse" x="0" y="13" width="28" height="64">
<path d="M11.0484 16.2338C11.6456 12.9494 16.3544 12.9494 16.9516 16.2338L28 77L1.34631e-05 77L11.0484 16.2338Z" fill="#EDE7E1"/>
</mask>
<g mask="url(#mask0_4094_2460)">
<path d="M14 0L28 77L14 77L14 0Z" fill="#E7CD9C"/>
</g>
</svg>
