<svg width="59" height="64" viewBox="0 0 59 64" fill="none" xmlns="http://www.w3.org/2000/svg">
<rect width="3.19078" height="7.51614" rx="1.59539" transform="matrix(0.979624 0.200839 -0.201118 0.979567 33.2031 3)" fill="#7ADC35"/>
<rect width="3.18957" height="7.519" rx="1.59478" transform="matrix(0.657167 -0.753745 0.754215 0.656627 15.0273 17.9434)" fill="#7ADC35"/>
<rect width="3.18972" height="7.51863" rx="1.59486" transform="matrix(0.707362 0.706851 -0.707362 0.706851 42.6445 44.8828)" fill="#7ADC35"/>
<rect width="3.18972" height="7.51863" rx="1.59486" transform="matrix(0.707362 0.706851 -0.707362 0.706851 56.5664 22.8105)" fill="#7ADC35"/>
<rect width="3.19007" height="7.51782" rx="1.59503" transform="matrix(0.805643 0.592402 -0.592957 0.805234 33.5391 31.4688)" fill="#7ADC35"/>
<rect width="3.18938" height="7.51945" rx="1.59469" transform="matrix(0.591318 -0.806439 0.806846 0.590762 1 45.1621)" fill="#7ADC35"/>
<rect width="3.19036" height="7.51712" rx="1.59518" transform="matrix(0.882137 -0.470993 0.471523 0.881854 4.125 21.582)" fill="#7ADC35"/>
<path fill-rule="evenodd" clip-rule="evenodd" d="M19 17C19 10.9249 23.9249 6 30 6C36.0751 6 41 10.9249 41 17V29.4896H44.0141C44.7578 29.4896 45.3607 28.8867 45.3607 28.143V21.8197C45.3607 19.1578 47.5185 17 50.1803 17C52.8422 17 55 19.1578 55 21.8197V31.831C55 35.7903 51.7903 39 47.831 39H41V64H19V55H13.4098C8.7652 55 5 51.2348 5 46.5902V27.8197C5 25.1578 7.15784 23 9.81967 23C12.4815 23 14.6393 25.1578 14.6393 27.8197V43.2353C14.6393 44.5859 15.7342 45.6807 17.0847 45.6807H19V17Z" fill="#67C624"/>
<rect x="37" y="15" width="4" height="46" rx="2" fill="#7ADC35"/>
<rect x="23" y="37" width="4" height="24" rx="2" fill="#5EB81F"/>
<rect x="23" y="17" width="4" height="8" rx="2" fill="#5EB81F"/>
</svg>
