<svg width="59" height="64" viewBox="0 0 59 64" fill="none" xmlns="http://www.w3.org/2000/svg">
<rect width="3.19078" height="7.51614" rx="1.59539" transform="matrix(0.979624 0.200839 -0.201118 0.979567 33.0273 3)" fill="#8AF8FF"/>
<rect width="3.18957" height="7.519" rx="1.59478" transform="matrix(0.657167 -0.753745 0.754215 0.656627 14.8516 17.9434)" fill="#8AF8FF"/>
<rect width="3.18972" height="7.51863" rx="1.59486" transform="matrix(0.707362 0.706851 -0.707362 0.706851 42.4688 44.8828)" fill="#8AF8FF"/>
<rect width="3.18972" height="7.51863" rx="1.59486" transform="matrix(0.707362 0.706851 -0.707362 0.706851 56.3906 22.8105)" fill="#8AF8FF"/>
<rect width="3.19007" height="7.51782" rx="1.59503" transform="matrix(0.805643 0.592402 -0.592957 0.805234 33.3633 31.4688)" fill="#8AF8FF"/>
<rect width="3.18938" height="7.51945" rx="1.59469" transform="matrix(0.591318 -0.806439 0.806846 0.590762 0.824219 45.1621)" fill="#8AF8FF"/>
<rect width="3.19036" height="7.51712" rx="1.59518" transform="matrix(0.882137 -0.470993 0.471523 0.881854 3.94922 21.582)" fill="#8AF8FF"/>
<path fill-rule="evenodd" clip-rule="evenodd" d="M18.8242 17C18.8242 10.9249 23.7491 6 29.8242 6C35.8994 6 40.8242 10.9249 40.8242 17V29.4896H43.8383C44.582 29.4896 45.1849 28.8867 45.1849 28.143V21.8197C45.1849 19.1578 47.3427 17 50.0045 17C52.6664 17 54.8242 19.1578 54.8242 21.8197V31.831C54.8242 35.7903 51.6145 39 47.6552 39H40.8242V64H18.8242V55H13.234C8.58941 55 4.82422 51.2348 4.82422 46.5902V27.8197C4.82422 25.1578 6.98206 23 9.64389 23C12.3057 23 14.4636 25.1578 14.4636 27.8197V43.2353C14.4636 44.5859 15.5584 45.6807 16.9089 45.6807H18.8242V17Z" fill="#70F6FF"/>
<rect x="36.8242" y="15" width="4" height="46" rx="2" fill="#8AF8FF"/>
<rect x="22.8242" y="37" width="4" height="24" rx="2" fill="#46F4FF"/>
<rect x="22.8242" y="17" width="4" height="8" rx="2" fill="#46F4FF"/>
</svg>
