<svg width="435" height="145" viewBox="0 0 435 145" fill="none" xmlns="http://www.w3.org/2000/svg">
<rect x="145" width="145" height="145" transform="rotate(90 145 0)" fill="#FF973B"/>
<mask id="mask0_4094_2470" style="mask-type:alpha" maskUnits="userSpaceOnUse" x="0" y="0" width="145" height="145">
<rect x="145" width="145" height="145" transform="rotate(90 145 0)" fill="#F77F23"/>
</mask>
<g mask="url(#mask0_4094_2470)">
<path d="M-73.5 18L216.267 18L217.5 92L199.312 78.0717C188.58 69.8528 173.67 69.8528 162.937 78.0717V78.0717C152.205 86.2906 137.295 86.2906 126.562 78.0717V78.0717C115.83 69.8528 100.92 69.8528 90.1875 78.0717V78.0717C79.4553 86.2906 64.5447 86.2906 53.8125 78.0717V78.0717C43.0803 69.8528 28.1697 69.8528 17.4375 78.0717V78.0717C6.70528 86.2906 -8.20532 86.2906 -18.9375 78.0717V78.0717C-29.6697 69.8528 -44.5803 69.8528 -55.3125 78.0717L-73.5 92L-73.5 18Z" fill="#FFA241"/>
</g>
<rect width="145" height="29" fill="#FFB467"/>
<rect x="290" width="145" height="145" transform="rotate(90 290 0)" fill="#FF973B"/>
<mask id="mask1_4094_2470" style="mask-type:alpha" maskUnits="userSpaceOnUse" x="145" y="0" width="145" height="145">
<rect x="290" width="145" height="145" transform="rotate(90 290 0)" fill="#F77F23"/>
</mask>
<g mask="url(#mask1_4094_2470)">
<path d="M71.5 18L361.267 18L362.5 92L344.312 78.0717C333.58 69.8528 318.67 69.8528 307.937 78.0717V78.0717C297.205 86.2906 282.295 86.2906 271.562 78.0717V78.0717C260.83 69.8528 245.92 69.8528 235.187 78.0717V78.0717C224.455 86.2906 209.545 86.2906 198.812 78.0717V78.0717C188.08 69.8528 173.17 69.8528 162.437 78.0717V78.0717C151.705 86.2906 136.795 86.2906 126.062 78.0717V78.0717C115.33 69.8528 100.42 69.8528 89.6875 78.0717L71.5 92L71.5 18Z" fill="#FFA241"/>
</g>
<rect x="145" width="145" height="29" fill="#FFB467"/>
<path fill-rule="evenodd" clip-rule="evenodd" d="M205.437 79.4957C197.431 71.4899 184.451 71.4899 176.446 79.4957C169.533 86.4083 168.589 97.0294 173.614 104.955L171.142 107.426C169.58 108.989 169.58 111.521 171.142 113.083C172.705 114.645 175.237 114.645 176.799 113.083C175.237 114.645 175.237 117.178 176.799 118.74C178.361 120.302 180.894 120.302 182.456 118.74C180.894 120.302 180.894 122.835 182.456 124.397C184.018 125.959 186.551 125.959 188.113 124.397L190.585 121.925C198.51 126.95 209.131 126.006 216.044 119.094C224.049 111.088 224.049 98.108 216.044 90.1023L205.437 79.4957ZM184.931 87.981C187.079 85.8331 190.561 85.8331 192.709 87.981C194.857 90.1289 194.857 93.6113 192.709 95.7591L188.467 100.002C186.319 102.15 182.836 102.15 180.688 100.002C178.54 97.8539 178.54 94.3715 180.688 92.2236L184.931 87.981ZM206.851 102.123C204.703 99.9752 201.221 99.9752 199.073 102.123L194.83 106.366C192.683 108.514 192.683 111.996 194.83 114.144C196.978 116.292 200.461 116.292 202.609 114.144L206.851 109.901C208.999 107.753 208.999 104.271 206.851 102.123Z" fill="#FFB467"/>
<rect x="435" width="145" height="145" transform="rotate(90 435 0)" fill="#FF973B"/>
<mask id="mask2_4094_2470" style="mask-type:alpha" maskUnits="userSpaceOnUse" x="290" y="0" width="145" height="145">
<rect x="435" width="145" height="145" transform="rotate(90 435 0)" fill="#F77F23"/>
</mask>
<g mask="url(#mask2_4094_2470)">
<path d="M216.5 18L506.267 18L507.5 92L489.312 78.0717C478.58 69.8528 463.67 69.8528 452.937 78.0717V78.0717C442.205 86.2906 427.295 86.2906 416.562 78.0717V78.0717C405.83 69.8528 390.92 69.8528 380.187 78.0717V78.0717C369.455 86.2906 354.545 86.2906 343.812 78.0717V78.0717C333.08 69.8528 318.17 69.8528 307.437 78.0717V78.0717C296.705 86.2906 281.795 86.2906 271.062 78.0717V78.0717C260.33 69.8528 245.42 69.8528 234.688 78.0717L216.5 92L216.5 18Z" fill="#FFA241"/>
</g>
<rect x="290" width="145" height="29" fill="#FFB467"/>
<path fill-rule="evenodd" clip-rule="evenodd" d="M373.608 70.2262C373.44 69.7612 373.228 69.3045 372.972 68.8612C370.625 64.7957 365.427 63.4028 361.361 65.75C357.296 68.0972 355.903 73.2957 358.25 77.3612C359.554 79.6194 361.737 81.053 364.118 81.4791C363.296 83.7536 363.446 86.3614 364.75 88.6195C367.097 92.685 372.296 94.078 376.361 91.7308C380.427 89.3836 381.82 84.185 379.472 80.1195C379.217 79.6763 378.927 79.2648 378.608 78.8865L396.157 68.7545C396.326 69.2196 396.537 69.6763 396.793 70.1195C399.14 74.185 404.339 75.578 408.404 73.2308C412.47 70.8836 413.863 65.685 411.515 61.6195C410.212 59.3614 408.028 57.9278 405.648 57.5016C406.469 55.2271 406.319 52.6194 405.015 50.3612C402.668 46.2957 397.47 44.9028 393.404 47.25C389.339 49.5972 387.946 54.7957 390.293 58.8612C390.549 59.3045 390.839 59.716 391.157 60.0943L373.608 70.2262Z" fill="#FFB467"/>
</svg>
