<svg width="112" height="35" viewBox="0 0 112 35" fill="none" xmlns="http://www.w3.org/2000/svg">
<path d="M2.58085 25.9653C0.809176 24.5321 2.42941 21.7258 4.55639 22.5435L13.4429 25.9601L9.98293 31.953L2.58085 25.9653Z" fill="#F2E1B3"/>
<path d="M5.58085 15.9653C3.80918 14.5321 5.42941 11.7258 7.55639 12.5435L16.4429 15.9601L12.9829 21.953L5.58085 15.9653Z" fill="#F2E1B3"/>
<path d="M25.8606 25.9653C27.6322 24.5321 26.012 21.7258 23.885 22.5435L14.9985 25.9601L18.4585 31.953L25.8606 25.9653Z" fill="#E7CD9C"/>
<path d="M21.8606 15.9653C23.6322 14.5321 22.012 11.7258 19.885 12.5435L10.9985 15.9601L14.4585 21.953L21.8606 15.9653Z" fill="#E7CD9C"/>
<path d="M11.2146 6.96357C12.2203 4.44914 15.7797 4.44914 16.7854 6.96357L28 35H0L11.2146 6.96357Z" fill="#F2E1B3"/>
<mask id="mask0_4094_2463" style="mask-type:alpha" maskUnits="userSpaceOnUse" x="0" y="5" width="28" height="30">
<path d="M11.2146 6.96357C12.2203 4.44914 15.7797 4.44914 16.7854 6.96357L28 35H0L11.2146 6.96357Z" fill="#EDE7E1"/>
</mask>
<g mask="url(#mask0_4094_2463)">
<path d="M14 0L28 35H14V0Z" fill="#E7CD9C"/>
</g>
<path d="M30.5808 25.9653C28.8092 24.5321 30.4294 21.7258 32.5564 22.5435L41.4429 25.9601L37.9829 31.953L30.5808 25.9653Z" fill="#F2E1B3"/>
<path d="M33.5808 15.9653C31.8092 14.5321 33.4294 11.7258 35.5564 12.5435L44.4429 15.9601L40.9829 21.953L33.5808 15.9653Z" fill="#F2E1B3"/>
<path d="M53.8606 25.9653C55.6322 24.5321 54.012 21.7258 51.885 22.5435L42.9985 25.9601L46.4585 31.953L53.8606 25.9653Z" fill="#E7CD9C"/>
<path d="M49.8606 15.9653C51.6322 14.5321 50.012 11.7258 47.885 12.5435L38.9985 15.9601L42.4585 21.953L49.8606 15.9653Z" fill="#E7CD9C"/>
<path d="M39.2146 6.96357C40.2203 4.44914 43.7797 4.44914 44.7854 6.96357L56 35H28L39.2146 6.96357Z" fill="#F2E1B3"/>
<mask id="mask1_4094_2463" style="mask-type:alpha" maskUnits="userSpaceOnUse" x="28" y="5" width="28" height="30">
<path d="M39.2146 6.96357C40.2203 4.44914 43.7797 4.44914 44.7854 6.96357L56 35H28L39.2146 6.96357Z" fill="#EDE7E1"/>
</mask>
<g mask="url(#mask1_4094_2463)">
<path d="M42 0L56 35H42V0Z" fill="#E7CD9C"/>
</g>
<path d="M58.5808 25.9653C56.8092 24.5321 58.4294 21.7258 60.5564 22.5435L69.4429 25.9601L65.9829 31.953L58.5808 25.9653Z" fill="#F2E1B3"/>
<path d="M61.5808 15.9653C59.8092 14.5321 61.4294 11.7258 63.5564 12.5435L72.4429 15.9601L68.9829 21.953L61.5808 15.9653Z" fill="#F2E1B3"/>
<path d="M81.8606 25.9653C83.6322 24.5321 82.012 21.7258 79.885 22.5435L70.9985 25.9601L74.4585 31.953L81.8606 25.9653Z" fill="#E7CD9C"/>
<path d="M77.8606 15.9653C79.6322 14.5321 78.012 11.7258 75.885 12.5435L66.9985 15.9601L70.4585 21.953L77.8606 15.9653Z" fill="#E7CD9C"/>
<path d="M67.2146 6.96357C68.2203 4.44914 71.7797 4.44914 72.7854 6.96357L84 35H56L67.2146 6.96357Z" fill="#F2E1B3"/>
<mask id="mask2_4094_2463" style="mask-type:alpha" maskUnits="userSpaceOnUse" x="56" y="5" width="28" height="30">
<path d="M67.2146 6.96357C68.2203 4.44914 71.7797 4.44914 72.7854 6.96357L84 35H56L67.2146 6.96357Z" fill="#EDE7E1"/>
</mask>
<g mask="url(#mask2_4094_2463)">
<path d="M70 0L84 35H70V0Z" fill="#E7CD9C"/>
</g>
<path d="M86.5808 25.9653C84.8092 24.5321 86.4294 21.7258 88.5564 22.5435L97.4429 25.9601L93.9829 31.953L86.5808 25.9653Z" fill="#F2E1B3"/>
<path d="M89.5808 15.9653C87.8092 14.5321 89.4294 11.7258 91.5564 12.5435L100.443 15.9601L96.9829 21.953L89.5808 15.9653Z" fill="#F2E1B3"/>
<path d="M109.861 25.9653C111.632 24.5321 110.012 21.7258 107.885 22.5435L98.9985 25.9601L102.458 31.953L109.861 25.9653Z" fill="#E7CD9C"/>
<path d="M105.861 15.9653C107.632 14.5321 106.012 11.7258 103.885 12.5435L94.9985 15.9601L98.4585 21.953L105.861 15.9653Z" fill="#E7CD9C"/>
<path d="M95.2146 6.96357C96.2203 4.44914 99.7797 4.44914 100.785 6.96357L112 35H84L95.2146 6.96357Z" fill="#F2E1B3"/>
<mask id="mask3_4094_2463" style="mask-type:alpha" maskUnits="userSpaceOnUse" x="84" y="5" width="28" height="30">
<path d="M95.2146 6.96357C96.2203 4.44914 99.7797 4.44914 100.785 6.96357L112 35H84L95.2146 6.96357Z" fill="#EDE7E1"/>
</mask>
<g mask="url(#mask3_4094_2463)">
<path d="M98 0L112 35H98V0Z" fill="#E7CD9C"/>
</g>
</svg>
