<svg width="28" height="35" viewBox="0 0 28 35" fill="none" xmlns="http://www.w3.org/2000/svg">
<path d="M2.58085 25.9653C0.809176 24.5321 2.42941 21.7258 4.55639 22.5435L13.4429 25.9601L9.98293 31.953L2.58085 25.9653Z" fill="#F2E1B3"/>
<path d="M5.58085 15.9653C3.80918 14.5321 5.42941 11.7258 7.55639 12.5435L16.4429 15.9601L12.9829 21.953L5.58085 15.9653Z" fill="#F2E1B3"/>
<path d="M25.8606 25.9653C27.6322 24.5321 26.012 21.7258 23.885 22.5435L14.9985 25.9601L18.4585 31.953L25.8606 25.9653Z" fill="#E7CD9C"/>
<path d="M21.8606 15.9653C23.6322 14.5321 22.012 11.7258 19.885 12.5435L10.9985 15.9601L14.4585 21.953L21.8606 15.9653Z" fill="#E7CD9C"/>
<path d="M11.2146 6.96357C12.2203 4.44914 15.7797 4.44914 16.7854 6.96357L28 35H0L11.2146 6.96357Z" fill="#F2E1B3"/>
<mask id="mask0_4094_2462" style="mask-type:alpha" maskUnits="userSpaceOnUse" x="0" y="5" width="28" height="30">
<path d="M11.2146 6.96357C12.2203 4.44914 15.7797 4.44914 16.7854 6.96357L28 35H0L11.2146 6.96357Z" fill="#EDE7E1"/>
</mask>
<g mask="url(#mask0_4094_2462)">
<path d="M14 0L28 35H14V0Z" fill="#E7CD9C"/>
</g>
</svg>
