<svg width="140" height="140" viewBox="0 0 140 140" fill="none" xmlns="http://www.w3.org/2000/svg">
<rect width="17" height="48" rx="8.5" transform="matrix(-1 0 0 1 65 92)" fill="white"/>
<rect width="17" height="48" rx="8.5" transform="matrix(-1 0 0 1 92 92)" fill="white"/>
<rect width="17" height="136" rx="8.5" transform="matrix(1.19249e-08 -1 -1 -1.19249e-08 138 109)" fill="white"/>
<rect width="11" height="23" rx="5.5" transform="matrix(-1 0 0 1 37 24)" fill="black"/>
<rect width="11" height="23" rx="5.5" transform="matrix(-1 0 0 1 114 24)" fill="white"/>
<rect width="114" height="94" rx="26" transform="matrix(-1 0 0 1 127 32)" fill="white"/>
<mask id="mask0_4094_2478" style="mask-type:alpha" maskUnits="userSpaceOnUse" x="13" y="32" width="114" height="94">
<rect width="114" height="94" rx="26" transform="matrix(-1 0 0 1 127 32)" fill="white"/>
</mask>
<g mask="url(#mask0_4094_2478)">
<circle cx="17" cy="45" r="29" fill="black"/>
<circle cx="128.5" cy="70.5" r="17.5" fill="black"/>
</g>
<path d="M35 92H105L72.5725 111.457C70.9891 112.407 69.0109 112.407 67.4275 111.457L35 92Z" fill="#FF4124"/>
<path d="M13 92H46V104C46 115.046 37.0457 124 26 124H18C15.2386 124 13 121.761 13 119V92Z" fill="#AF543C"/>
<path d="M127 92H94V104C94 115.046 102.954 124 114 124H122C124.761 124 127 121.761 127 119V92Z" fill="#AF543C"/>
<path d="M110.652 97.3582C111.043 96.7311 111.957 96.7311 112.348 97.3582L113.768 99.632C113.944 99.9141 114.249 100.09 114.582 100.102L117.261 100.195C118 100.22 118.456 101.011 118.109 101.664L116.85 104.03C116.694 104.324 116.694 104.676 116.85 104.97L118.109 107.336C118.456 107.989 118 108.78 117.261 108.805L114.582 108.898C114.249 108.91 113.944 109.086 113.768 109.368L112.348 111.642C111.957 112.269 111.043 112.269 110.652 111.642L109.232 109.368C109.056 109.086 108.751 108.91 108.418 108.898L105.739 108.805C105 108.78 104.544 107.989 104.891 107.336L106.15 104.97C106.306 104.676 106.306 104.324 106.15 104.03L104.891 101.664C104.544 101.011 105 100.22 105.739 100.195L108.418 100.102C108.751 100.09 109.056 99.9141 109.232 99.632L110.652 97.3582Z" fill="#FFD705"/>
<rect width="62" height="32" rx="10" transform="matrix(-1 0 0 1 101 64)" fill="#FAAFF0"/>
<rect width="10" height="16" rx="5" transform="matrix(-1 0 0 1 89 72)" fill="#FF8DF4"/>
<rect width="10" height="16" rx="5" transform="matrix(-1 0 0 1 61 72)" fill="#FF8DF4"/>
<rect width="9" height="14" rx="4.5" transform="matrix(-1 0 0 1 83 44)" fill="black"/>
<rect width="9" height="14" rx="4.5" transform="matrix(-1 0 0 1 66 44)" fill="black"/>
<path fill-rule="evenodd" clip-rule="evenodd" d="M70 5.12399C71.3648 2.66458 73.988 1 77 1C81.4183 1 85 4.58172 85 9V26H87V25.5C87 23.567 88.567 22 90.5 22C92.433 22 94 23.567 94 25.5V32H91H87H53H49H46V25.5C46 23.567 47.567 22 49.5 22C51.433 22 53 23.567 53 25.5V26H55L55 9C55 4.58172 58.5818 1 63 1C66.0121 1 68.6353 2.66458 70 5.12399Z" fill="#AF543C"/>
<rect x="55" y="18" width="30" height="8" fill="#79261B"/>
<rect x="65" y="18" width="10" height="8" fill="#FFB140"/>
</svg>
