<svg width="126" height="64" viewBox="0 0 126 64" fill="none" xmlns="http://www.w3.org/2000/svg">
<path fill-rule="evenodd" clip-rule="evenodd" d="M124.131 36.2678C125.107 35.2915 125.107 33.7085 124.131 32.7322C123.154 31.7559 121.571 31.7559 120.595 32.7322L118.363 34.9648H106V39.9648H118.636L120.596 41.9247C121.572 42.901 123.155 42.901 124.131 41.9247C125.108 40.9484 125.108 39.3655 124.131 38.3892L123.07 37.3281L124.131 36.2678Z" fill="#FF4124"/>
<path d="M94 47L27 47L27 37.5C27 18.9985 41.9985 4 60.5 4.00001V4.00001C79.0015 4.00001 94 18.9985 94 37.5L94 47Z" fill="#00A333"/>
<mask id="mask0_4094_2466" style="mask-type:alpha" maskUnits="userSpaceOnUse" x="27" y="4" width="67" height="43">
<path d="M94 47L27 47L27 37.5C27 18.9985 41.9985 4 60.5 4.00001V4.00001C79.0015 4.00001 94 18.9985 94 37.5L94 47Z" fill="#015801"/>
</mask>
<g mask="url(#mask0_4094_2466)">
<path d="M54 2L63 2V21.5C63 23.9853 60.9853 26 58.5 26V26C56.0147 26 54 23.9853 54 21.5V2Z" fill="#FFD705"/>
<path d="M37 2L46 2V21.5C46 23.9853 43.9853 26 41.5 26V26C39.0147 26 37 23.9853 37 21.5V2Z" fill="#FFD705"/>
</g>
<path d="M43 56C43 60.4183 39.4183 64 35 64V64C30.5817 64 27 60.4183 27 56L27 45C27 40.5817 30.5817 37 35 37V37C39.4183 37 43 40.5817 43 45L43 56Z" fill="#00A333"/>
<path d="M79 56C79 60.4183 75.4183 64 71 64V64C66.5817 64 63 60.4183 63 56L63 45C63 40.5817 66.5817 37 71 37V37C75.4183 37 79 40.5817 79 45L79 56Z" fill="#00A333"/>
<path d="M115 36.4736C115 16.8821 99.1179 1 79.5264 1H76.9252C72.5482 1 69 4.54823 69 8.92518V39.0748C69 43.4518 72.5482 47 76.9252 47H104.474C110.287 47 115 42.2872 115 36.4736V36.4736Z" fill="#03D645"/>
<rect width="12" height="20" rx="6" transform="matrix(-1 0 0 1 96 16)" fill="black"/>
<path d="M46 43H15C10.0294 43 6 38.9706 6 34V32.3077C6 28.2718 9.27177 25 13.3077 25H14.3705C17.8194 25 20.6154 27.7959 20.6154 31.2449V31.2449" stroke="#00A333" stroke-width="8" stroke-linecap="round"/>
<mask id="mask1_4094_2466" style="mask-type:alpha" maskUnits="userSpaceOnUse" x="69" y="1" width="46" height="46">
<path d="M115 36.4736C115 16.8821 99.1179 1 79.5264 1H76.9252C72.5482 1 69 4.54823 69 8.92518V39.0748C69 43.4518 72.5482 47 76.9252 47H104.474C110.287 47 115 42.2872 115 36.4736V36.4736Z" fill="#03D645"/>
</mask>
<g mask="url(#mask1_4094_2466)">
<path d="M101 37.4648C101 36.0841 102.119 34.9648 103.5 34.9648H115V39.9648H103.5C102.119 39.9648 101 38.8456 101 37.4648V37.4648Z" fill="#00A333"/>
</g>
</svg>
