<svg width="110" height="110" viewBox="0 0 110 110" fill="none" xmlns="http://www.w3.org/2000/svg">
<path d="M37.9597 19.2515L40.5842 21.5646C39.5942 22.7721 39 24.3167 39 26C39 26.1402 39.0042 26.2796 39.0124 26.4179C25.4493 32.5214 16.0001 46.1538 16.0001 62L16.0001 71.5834C12.3217 74.8759 10 79.6671 10 85C10 94.9411 18.0589 103 28 103H82C91.9411 103 100 94.9411 100 85C100 79.6672 97.6783 74.876 94.0001 71.5836V62C94.0001 46.1538 84.5507 32.5213 70.9876 26.4179C70.9958 26.2796 71 26.1402 71 26C71 24.3167 70.4058 22.7721 69.4158 21.5646L72.0403 19.2515C76.8801 14.9859 73.8631 7 67.4119 7H42.5881C36.1369 7 33.1199 14.9859 37.9597 19.2515Z" fill="#00A333" stroke="white" stroke-width="6"/>
<path d="M68 26C68 28.2091 66.2091 30 64 30L46 30C43.7909 30 42 28.2091 42 26C42 23.7909 43.7909 22 46 22L64 22C66.2091 22 68 23.7909 68 26Z" fill="#FFA461"/>
<path d="M63.3007 22L64.0019 22C65.3617 22 66.5629 22.6784 67.2857 23.7153L64.6951 29.9402C64.47 29.9795 64.2384 30 64.0019 30H59.9714L63.3007 22Z" fill="#F69752"/>
<path d="M59.0229 22L54.3241 22L50.9949 30L55.6937 30L59.0229 22Z" fill="#F69752"/>
<path d="M46.7165 30L50.0456 22.0003L45.9491 22.0003C45.736 22.0031 45.5269 22.0225 45.3231 22.0574L42.7266 28.2967C43.4502 29.3268 44.6474 30 46.0019 30H46.7165Z" fill="#F69752"/>
<path d="M54.1238 71.34C54.6738 71.67 55.0954 71.835 55.3888 71.835C55.7188 71.835 56.2138 71.5967 56.8737 71.12C57.5337 70.6067 57.8638 70.2217 57.8638 69.965C57.8638 69.6717 57.6254 69.3233 57.1488 68.92C56.6721 68.5167 55.4988 67.8933 53.6288 67.05C51.7954 66.17 50.0904 65.235 48.5138 64.245C46.9371 63.255 45.9104 62.2833 45.4338 61.33C44.9571 60.3767 44.7188 59.3683 44.7188 58.305C44.7188 57.2417 44.9021 56.325 45.2688 55.555C45.6354 54.785 46.6438 53.6483 48.2938 52.145C49.9804 50.6417 51.5021 49.5417 52.8588 48.845V44.5H57.8088V49.01C61.0721 50.4767 63.4554 52.4933 64.9588 55.06L58.7438 59.35L58.3038 58.745C56.6904 56.6917 55.4988 55.665 54.7288 55.665C54.3254 55.665 53.7938 55.9217 53.1338 56.435C52.4738 56.9117 52.1438 57.315 52.1438 57.645C52.1438 57.9383 52.3638 58.2683 52.8038 58.635C53.2804 59.0017 54.4171 59.6433 56.2137 60.56C58.0471 61.4767 59.7704 62.4483 61.3838 63.475C63.0338 64.465 64.0971 65.3817 64.5738 66.225C65.0504 67.0317 65.2888 68.26 65.2888 69.91C65.2888 71.5233 65.0138 72.6783 64.4638 73.375C63.9504 74.0717 63.0154 74.9333 61.6588 75.96C60.3388 76.9867 59.0554 77.83 57.8088 78.49V83H52.8588V78.435C51.4288 77.9583 49.9438 77.17 48.4038 76.07C46.9004 74.9333 45.7821 73.7233 45.0488 72.44L51.2638 68.15L51.7038 68.755C52.8038 70.1483 53.6104 71.01 54.1238 71.34Z" fill="#00882A"/>
</svg>
