<svg width="110" height="110" viewBox="0 0 110 110" fill="none" xmlns="http://www.w3.org/2000/svg">
<path d="M49 86C49 85.8495 48.9967 85.6996 48.99 85.5503C48.9967 85.4002 49 85.2492 49 85.0976V79.9483C49 75.5909 46.1218 72.3058 43.4321 70.299C41.5037 68.8601 39.9981 66.8648 38.3316 64.022C36.0542 60.1371 35.2437 55.5842 36.0397 51.1691C36.8357 46.7536 39.1888 42.7526 42.6905 39.8796C46.1929 37.006 50.6168 35.4483 55.1778 35.4899C59.7387 35.5314 64.1325 37.1694 67.5804 40.1061C71.0276 43.0421 73.3056 47.0849 74.0192 51.514C74.7327 55.9427 73.8376 60.4803 71.488 64.3233C69.7657 67.1403 68.4168 68.9806 66.6581 70.3095C63.9967 72.3203 61 75.6102 61 80.0448V84.9522L60.9998 85.0001V93.0001C60.9998 98.5229 65.477 103 70.9998 103H92.9998C98.5227 103 103 98.5229 103 93.0001V86.0001C103 82.0135 100.667 78.5718 97.2921 76.9655C102.249 67.828 104.059 57.3105 102.401 47.0212C100.614 35.9255 94.9103 25.8215 86.3121 18.4983C77.7146 11.1757 66.7776 7.10532 55.442 7.00202C44.1064 6.89871 33.0958 10.769 24.3637 17.9334C15.6308 25.0984 9.74033 35.0963 7.74621 46.1574C5.84501 56.7031 7.60429 67.5571 12.7079 76.9654C9.33284 78.5716 7 82.0134 7 86V93C7 98.5228 11.4771 103 17 103H39C44.5229 103 49 98.5229 49 93V86Z" fill="#C5BDB6" stroke="white" stroke-width="6"/>
<path d="M60 21C60 23.7614 57.7614 26 55 26C52.2386 26 50 23.7614 50 21C50 18.2386 52.2386 16 55 16C57.7614 16 60 18.2386 60 21Z" fill="#AFA49B"/>
<path d="M35 33C35 35.7614 32.7614 38 30 38C27.2386 38 25 35.7614 25 33C25 30.2386 27.2386 28 30 28C32.7614 28 35 30.2386 35 33Z" fill="#AFA49B"/>
<path d="M27 55C27 57.7614 24.7614 60 22 60C19.2386 60 17 57.7614 17 55C17 52.2386 19.2386 50 22 50C24.7614 50 27 52.2386 27 55Z" fill="#AFA49B"/>
<path d="M92 55C92 57.7614 89.7614 60 87 60C84.2386 60 82 57.7614 82 55C82 52.2386 84.2386 50 87 50C89.7614 50 92 52.2386 92 55Z" fill="#AFA49B"/>
<path d="M84 33C84 35.7614 81.7614 38 79 38C76.2386 38 74 35.7614 74 33C74 30.2386 76.2386 28 79 28C81.7614 28 84 30.2386 84 33Z" fill="#AFA49B"/>
</svg>
