<svg width="110" height="110" viewBox="0 0 110 110" fill="none" xmlns="http://www.w3.org/2000/svg">
<path d="M64.1911 21.653C64.7161 20.373 65.0039 18.967 65.0039 17.5C65.0039 11.8993 60.7183 7 55.0039 7C49.2895 7 45.0039 11.8993 45.0039 17.5C45.0039 18.967 45.2917 20.373 45.8167 21.653L40.2378 29.4243L29.2191 30.5192C27.4448 27.8377 24.4749 26 21 26C15.2856 26 11 30.8993 11 36.5C11 42.1007 15.2856 47 21 47C21.2823 47 21.562 46.9877 21.8387 46.9635L25.4716 55L21.3994 64.0083C21.2669 64.0028 21.1337 64 21 64C15.2856 64 11 68.8993 11 74.5C11 80.1007 15.2856 85 21 85C24.8727 85 28.1065 82.7288 29.7742 79.536L40.2378 80.5757L45.8167 88.347C45.2917 89.627 45.0039 91.033 45.0039 92.5C45.0039 98.1007 49.2895 103 55.0039 103C60.7183 103 65.0039 98.1007 65.0039 92.5C65.0039 91.033 64.7161 89.627 64.1911 88.347L69.7701 80.5757L80.2262 79.5367C81.894 82.7292 85.1276 85 89 85C94.7144 85 99 80.1007 99 74.5C99 68.8993 94.7144 64 89 64C88.8689 64 88.7383 64.0027 88.6082 64.0079L84.5362 55L88.1688 46.9641C88.4431 46.9879 88.7203 47 89 47C94.7144 47 99 42.1007 99 36.5C99 30.8993 94.7144 26 89 26C85.5255 26 82.5557 27.8373 80.7814 30.5184L69.7701 29.4243L64.1911 21.653Z" fill="#FFD705" stroke="white" stroke-width="6"/>
<path d="M63.1208 57.7195C63.4141 58.1995 63.5608 59.1595 63.5608 60.5995C63.5608 62.0129 63.2674 63.2129 62.6808 64.1995C62.1474 64.9729 61.0141 66.0529 59.2808 67.4395C57.5474 68.7995 56.2674 69.4795 55.4408 69.4795C53.9741 69.4795 52.2941 68.7195 50.4008 67.1995C48.5074 65.6529 47.3074 63.9595 46.8008 62.1195L51.2408 59.0795C51.6674 60.3329 52.3474 61.4795 53.2808 62.5195C54.2141 63.5595 54.8674 64.0795 55.2408 64.0795C55.6408 64.0795 56.0541 63.9595 56.4808 63.7195C56.9341 63.4529 57.2808 63.1862 57.5208 62.9195C57.8674 62.4929 58.0408 61.8262 58.0408 60.9195C58.0408 60.0129 57.8274 59.4529 57.4008 59.2395C56.8674 58.7862 55.8274 58.1862 54.2808 57.4395C52.7608 56.6929 51.3474 55.8929 50.0408 55.0395C48.7341 54.1595 47.8941 53.3062 47.5208 52.4795C47.1741 51.6529 47.0008 50.5862 47.0008 49.2795C47.0008 47.9462 47.2941 46.7862 47.8808 45.7995C48.4141 45.0262 49.5474 43.9595 51.2808 42.5995C53.0141 41.2129 54.2941 40.5195 55.1208 40.5195C56.5874 40.5195 58.2674 41.2929 60.1608 42.8395C62.0541 44.3595 63.2541 46.0395 63.7608 47.8795L59.3208 50.9595C58.8941 49.7062 58.2141 48.5595 57.2808 47.5195C56.3474 46.4529 55.6808 45.9195 55.2808 45.9195C54.9074 45.9195 54.4941 46.0395 54.0408 46.2795C53.5874 46.5195 53.2141 46.8262 52.9208 47.1995C52.6541 47.5462 52.5208 48.1595 52.5208 49.0395C52.5208 49.8929 52.7874 50.4662 53.3208 50.7595C53.7474 51.1329 54.7208 51.7195 56.2408 52.5195C60.1341 54.6529 62.4274 56.3862 63.1208 57.7195Z" fill="#FDA006"/>
</svg>
